#!OML:ASF F:\VICON\USERDATA\INSTALL\rory3\rory3.ASF
:FULLY-SPECIFIED
:DEGREES
248
root 0.679431 17.8578 15.876 -3.23421 -4.32526 -0.464591
lowerback 10.2464 2.15423 1.5454
upperback 0.124175 3.07753 0.51092
thorax -5.56318 1.47942 -0.791028
lowerneck -16.1023 -3.39677 -1.49375
upperneck 23.0218 -4.59849 0.889472
head 10.0444 -2.14954 -0.0497173
rclavicle 5.29264e-015 0
rhumerus -23.9484 -17.6932 -80.3063
rradius 27.4718
rwrist 4.25313
rhand -19.5007 23.6469
rfingers 7.12502
rthumb 6.82183 -6.22315
lclavicle 5.29264e-015 0
lhumerus -36.5498 6.98421 81.2215
lradius 19.4379
lwrist -0.68271
lhand -19.9031 34.4086
lfingers 7.12502
lthumb 6.43339 64.2909
rfemur -5.7846 3.83691 22.5501
rtibia 67.3967
rfoot 21.9763 0.307332
rtoes 29.7076
lfemur -17.357 -2.25604 -22.7857
ltibia 30.5396
lfoot -6.26827 -0.239264
ltoes -1.29022
249
root 0.688944 17.875 16.0555 -3.40391 -4.37196 -0.339545
lowerback 10.4092 2.08071 1.36729
upperback 0.152861 2.96358 0.554265
thorax -5.63826 1.42778 -0.635586
lowerneck -16.1895 -3.31055 -1.47872
upperneck 23.2559 -4.46225 0.797282
head 10.1405 -2.09409 -0.0700699
rclavicle 1.41013e-015 -2.38542e-015
rhumerus -24.0659 -18.2761 -80.0606
rradius 26.8369
rwrist 5.05121
rhand -19.48 23.7776
rfingers 7.12502
rthumb 6.84179 -6.09184
lclavicle 1.41013e-015 -2.38542e-015
lhumerus -36.3135 6.73901 81.4486
lradius 19.588
lwrist 0.728113
lhand -23.922 29.7168
lfingers 7.12502
lthumb 2.55265 59.6813
rfemur -7.24785 3.55338 22.3289
rtibia 69.3234
rfoot 20.1196 -0.644606
rtoes 28.039
lfemur -16.6194 -2.2303 -23.0591
ltibia 30.6945
lfoot -6.84427 0.0332278
ltoes -1.58556
250
root 0.699123 17.8859 16.2377 -3.52117 -4.47372 -0.0893428
lowerback 10.4184 2.02793 1.09332
upperback 0.183076 2.86073 0.563899
thorax -5.62729 1.38496 -0.456408
lowerneck -16.2343 -3.19993 -1.61233
upperneck 23.3465 -4.28221 0.838321
head 10.1839 -2.01737 -0.0107434
rclavicle 2.68981e-015 -4.57205e-015
rhumerus -24.3031 -18.6481 -79.8433
rradius 26.485
rwrist 5.66668
rhand -19.4784 23.5661
rfingers 7.12502
rthumb 6.84338 -6.30326
lclavicle 2.68981e-015 -4.57205e-015
lhumerus -36.0259 5.83089 82.0469
lradius 19.1505
lwrist 4.13395
lhand -28.8579 22.4998
lfingers 7.12502
lthumb -2.21449 52.4681
rfemur -8.7305 3.30717 21.9611
rtibia 71.0703
rfoot 18.2902 -1.40461
rtoes 26.5035
lfemur -15.7526 -2.1419 -23.4651
ltibia 30.8059
lfoot -7.77277 0.386149
ltoes -0.773034
251
root 0.710545 17.8881 16.4152 -3.5589 -4.62666 -0.14073
lowerback 10.5017 1.96191 1.16176
upperback 0.137635 2.78812 0.648193
thorax -5.72394 1.34734 -0.400236
lowerneck -16.1623 -3.07957 -1.72898
upperneck 23.4096 -4.09812 0.893773
head 10.1946 -1.93677 0.053822
rclavicle -1.51014e-014 -5.56597e-015
rhumerus -24.6537 -19.1494 -79.5857
rradius 26.3349
rwrist 6.18187
rhand -19.2182 23.3062
rfingers 7.12502
rthumb 7.09452 -6.55488
lclavicle -1.51014e-014 -5.56597e-015
lhumerus -35.8319 5.89129 81.9426
lradius 19.4843
lwrist 3.92729
lhand -27.8235 23.5843
lfingers 7.12502
lthumb -1.21543 53.5606
rfemur -10.2342 3.17282 21.9438
rtibia 72.6403
rfoot 16.4726 -2.20157
rtoes 25.5897
lfemur -14.9515 -1.98073 -23.5154
ltibia 30.8827
lfoot -8.584 0.664571
ltoes -0.335887
252
root 0.71902 17.8961 16.5911 -3.6501 -4.65471 -0.202534
lowerback 10.5802 1.88461 1.23608
upperback 0.170912 2.69868 0.709556
thorax -5.73374 1.30204 -0.36653
lowerneck -16.1306 -2.9934 -1.69424
upperneck 23.5384 -3.98652 0.880493
head 10.2323 -1.88354 0.0580113
rclavicle -1.27533e-014 1.78906e-015
rhumerus -24.8834 -19.8571 -79.3373
rradius 26.106
rwrist 6.72009
rhand -19.044 23.3392
rfingers 7.12502
rthumb 7.26266 -6.51621
lclavicle -1.27533e-014 1.78906e-015
lhumerus -35.6334 6.22404 81.6563
lradius 20.0334
lwrist 3.02166
lhand -26.6725 24.3654
lfingers 7.12502
lthumb -0.1038 54.3451
rfemur -11.6604 2.90701 21.9528
rtibia 74.0027
rfoot 14.0329 -2.94226
rtoes 22.0683
lfemur -14.1597 -1.98569 -23.5491
ltibia 30.9279
lfoot -9.25854 0.91703
ltoes 0.101885
253
root 0.726268 17.9099 16.7645 -3.78425 -4.60883 -0.0812393
lowerback 10.6035 1.79414 1.1645
upperback 0.251687 2.56734 0.687931
thorax -5.66544 1.23995 -0.328171
lowerneck -15.9381 -2.96532 -1.68658
upperneck 23.4335 -3.9485 0.872341
head 10.1568 -1.86847 0.0628968
rclavicle 5.46658e-016 8.74653e-015
rhumerus -25.0669 -20.728 -79.0932
rradius 25.697
rwrist 7.37352
rhand -18.9128 21.253
rfingers 7.12502
rthumb 7.38928 -8.59795
lclavicle 5.46658e-016 8.74653e-015
lhumerus -35.4113 6.49747 81.371
lradius 20.5772
lwrist 2.58738
lhand -26.4017 23.4773
lfingers 7.12502
lthumb 0.157803 53.457
rfemur -12.9999 2.64151 21.7672
rtibia 75.0936
rfoot 10.7054 -3.64572
rtoes 14.341
lfemur -13.3229 -2.10845 -23.8003
ltibia 30.8065
lfoot -9.72269 1.16744
ltoes 0.552909
254
root 0.725878 17.9206 16.9199 -3.747 -4.60944 -0.179945
lowerback 10.6365 1.6851 1.20857
upperback 0.317361 2.43061 0.748389
thorax -5.61723 1.17286 -0.268859
lowerneck -16.0728 -2.95089 -1.66844
upperneck 23.4494 -3.91074 0.791673
head 10.1854 -1.85829 0.0342766
rclavicle 1.03989e-014 1.15295e-014
rhumerus -25.1277 -21.3283 -78.9698
rradius 25.4822
rwrist 7.96915
rhand -18.2301 17.9462
rfingers 7.12502
rthumb 8.04821 -11.8806
lclavicle 1.03989e-014 1.15295e-014
lhumerus -34.8969 6.25047 81.3894
lradius 20.7422
lwrist 3.34248
lhand -27.3075 21.0205
lfingers 7.12502
lthumb -0.717075 50.9991
rfemur -14.6364 2.57402 21.9337
rtibia 75.9675
rfoot 9.4986 -4.13764
rtoes 15.2137
lfemur -12.6982 -2.11376 -23.7456
ltibia 30.4093
lfoot -9.73881 1.28641
ltoes 0.488995
